<mxfile host="65bd71144e">
    <diagram id="1dZa2Ic1CS4slsf-3N0E" name="第 1 页">
        <mxGraphModel dx="3676" dy="2358" grid="1" gridSize="10" guides="1" tooltips="1" connect="1" arrows="1" fold="1" page="1" pageScale="1" pageWidth="827" pageHeight="1169" math="0" shadow="0">
            <root>
                <mxCell id="0"/>
                <mxCell id="1" parent="0"/>
                <mxCell id="9" style="edgeStyle=orthogonalEdgeStyle;html=1;exitX=0.5;exitY=0;exitDx=0;exitDy=0;fillColor=#008a00;strokeColor=#00C400;rounded=1;" parent="1" source="2" target="2" edge="1">
                    <mxGeometry relative="1" as="geometry">
                        <mxPoint x="130" y="330" as="targetPoint"/>
                        <Array as="points">
                            <mxPoint x="-280" y="-190"/>
                            <mxPoint x="740" y="-190"/>
                            <mxPoint x="740" y="630"/>
                            <mxPoint x="210" y="630"/>
                            <mxPoint x="210" y="520"/>
                            <mxPoint x="-670" y="520"/>
                            <mxPoint x="-670" y="280"/>
                        </Array>
                    </mxGeometry>
                </mxCell>
                <mxCell id="10" value="Text" style="edgeLabel;html=1;align=center;verticalAlign=middle;resizable=0;points=[];" parent="9" vertex="1" connectable="0">
                    <mxGeometry x="0.172" y="-3" relative="1" as="geometry">
                        <mxPoint as="offset"/>
                    </mxGeometry>
                </mxCell>
                <mxCell id="2" value="virtual machine&amp;nbsp;&lt;br&gt;&lt;i&gt;&lt;b&gt;create/scale&lt;/b&gt;&lt;/i&gt;" style="ellipse;whiteSpace=wrap;html=1;fillColor=#60a917;fontColor=#ffffff;strokeColor=#2D7600;" parent="1" vertex="1">
                    <mxGeometry x="-730" y="230" width="120" height="80" as="geometry"/>
                </mxCell>
                <mxCell id="3" value="&lt;pre&gt;&lt;code class=&quot;language-yaml hljs&quot;&gt;MachineSet.&lt;/code&gt;spec.bootstrap.Template&lt;/pre&gt;" style="rounded=0;whiteSpace=wrap;html=1;fillColor=#008a00;fontColor=#ffffff;strokeColor=#005700;dashed=1;" parent="1" vertex="1">
                    <mxGeometry x="140" y="260" width="260" height="60" as="geometry"/>
                </mxCell>
                <mxCell id="4" value="&lt;pre&gt;&lt;code class=&quot;language-yaml hljs&quot;&gt;MachineSet.&lt;/code&gt;spec.infrastructureRef.Template&lt;/pre&gt;" style="rounded=0;whiteSpace=wrap;html=1;fillColor=#008a00;fontColor=#ffffff;strokeColor=#005700;dashed=1;" parent="1" vertex="1">
                    <mxGeometry x="420" y="260" width="310" height="60" as="geometry"/>
                </mxCell>
                <mxCell id="11" value="&lt;b&gt;&lt;i&gt;reconcile&lt;/i&gt;&lt;/b&gt;" style="text;html=1;align=center;verticalAlign=middle;resizable=0;points=[];autosize=1;strokeColor=none;fillColor=none;" parent="1" vertex="1">
                    <mxGeometry x="410" y="-230" width="80" height="30" as="geometry"/>
                </mxCell>
                <mxCell id="16" value="" style="shape=doubleArrow;direction=south;whiteSpace=wrap;html=1;" parent="1" vertex="1">
                    <mxGeometry x="270" y="150" width="20" height="100" as="geometry"/>
                </mxCell>
                <mxCell id="17" value="clone" style="text;html=1;align=center;verticalAlign=middle;resizable=0;points=[];autosize=1;strokeColor=#A50040;fillColor=#d80073;fontColor=#ffffff;" parent="1" vertex="1">
                    <mxGeometry x="280" y="185" width="50" height="30" as="geometry"/>
                </mxCell>
                <mxCell id="18" value="clone" style="text;html=1;align=center;verticalAlign=middle;resizable=0;points=[];autosize=1;strokeColor=#A50040;fillColor=#d80073;fontColor=#ffffff;" parent="1" vertex="1">
                    <mxGeometry x="570" y="185" width="50" height="30" as="geometry"/>
                </mxCell>
                <mxCell id="19" value="" style="shape=doubleArrow;direction=south;whiteSpace=wrap;html=1;" parent="1" vertex="1">
                    <mxGeometry x="553" y="145" width="24" height="110" as="geometry"/>
                </mxCell>
                <mxCell id="28" style="edgeStyle=orthogonalEdgeStyle;rounded=1;html=1;exitX=0.5;exitY=0;exitDx=0;exitDy=0;fontColor=#FF0000;fillColor=#60a917;strokeColor=#2D7600;" parent="1" source="24" edge="1">
                    <mxGeometry relative="1" as="geometry">
                        <mxPoint x="450" y="-190" as="targetPoint"/>
                    </mxGeometry>
                </mxCell>
                <mxCell id="24" value="&lt;pre&gt;&lt;code class=&quot;language-yaml hljs&quot;&gt;Machine.&lt;/code&gt;spec.bootstrap.Config&lt;/pre&gt;" style="rounded=0;whiteSpace=wrap;html=1;fillColor=#008a00;fontColor=#ffffff;strokeColor=#005700;dashed=1;" parent="1" vertex="1">
                    <mxGeometry x="150" y="85" width="260" height="60" as="geometry"/>
                </mxCell>
                <mxCell id="29" style="edgeStyle=orthogonalEdgeStyle;rounded=1;html=1;exitX=0.5;exitY=0;exitDx=0;exitDy=0;fontColor=#FF0000;fillColor=#60a917;strokeColor=#2D7600;" parent="1" source="25" edge="1">
                    <mxGeometry relative="1" as="geometry">
                        <mxPoint x="450" y="-190" as="targetPoint"/>
                    </mxGeometry>
                </mxCell>
                <mxCell id="25" value="&lt;pre&gt;&lt;code class=&quot;language-yaml hljs&quot;&gt;Machine.&lt;/code&gt;spec.infrastructureRef.Config&lt;/pre&gt;" style="rounded=0;whiteSpace=wrap;html=1;fillColor=#008a00;fontColor=#ffffff;strokeColor=#005700;dashed=1;" parent="1" vertex="1">
                    <mxGeometry x="435" y="85" width="295" height="60" as="geometry"/>
                </mxCell>
                <mxCell id="30" value="ar by cluster-api-openstack" style="shape=singleArrow;whiteSpace=wrap;html=1;fontColor=#FF0000;" parent="1" vertex="1">
                    <mxGeometry x="750" y="85" width="180" height="60" as="geometry"/>
                </mxCell>
                <mxCell id="31" value="ar by ansible&amp;nbsp;" style="shape=singleArrow;direction=west;whiteSpace=wrap;html=1;fontColor=#FF0000;" parent="1" vertex="1">
                    <mxGeometry y="160" width="150" height="60" as="geometry"/>
                </mxCell>
                <mxCell id="49" style="edgeStyle=orthogonalEdgeStyle;rounded=1;html=1;exitX=1;exitY=0.5;exitDx=0;exitDy=0;entryX=1;entryY=0.5;entryDx=0;entryDy=0;strokeColor=#006EAF;fontColor=#FF0000;fillColor=#1ba1e2;endArrow=none;endFill=0;" parent="1" source="32" target="46" edge="1">
                    <mxGeometry relative="1" as="geometry">
                        <Array as="points">
                            <mxPoint x="120" y="120"/>
                            <mxPoint x="120" y="600"/>
                        </Array>
                    </mxGeometry>
                </mxCell>
                <mxCell id="32" value="&lt;pre&gt;&lt;pre style=&quot;background-color:#2b2b2b;color:#a9b7c6;font-family:'JetBrains Mono',monospace;font-size:9.8pt;&quot;&gt;AnsibleConfig&lt;/pre&gt;&lt;/pre&gt;" style="rounded=0;whiteSpace=wrap;html=1;fillColor=#1ba1e2;fontColor=#ffffff;strokeColor=#006EAF;" parent="1" vertex="1">
                    <mxGeometry x="-290" y="90" width="260" height="60" as="geometry"/>
                </mxCell>
                <mxCell id="33" value="&lt;pre style=&quot;border-color: rgb(0, 0, 0); font-style: normal; font-variant-ligatures: normal; font-variant-caps: normal; font-weight: 400; letter-spacing: normal; orphans: 2; text-align: center; text-indent: 0px; text-transform: none; widows: 2; word-spacing: 0px; -webkit-text-stroke-width: 0px; text-decoration-thickness: initial; text-decoration-style: initial; text-decoration-color: initial; background-color: rgb(43, 43, 43); color: rgb(169, 183, 198); font-family: &amp;quot;JetBrains Mono&amp;quot;, monospace; font-size: 9.8pt;&quot;&gt;AnsibleConfigTemplate&lt;/pre&gt;" style="rounded=0;whiteSpace=wrap;html=1;fillColor=#1ba1e2;fontColor=#ffffff;strokeColor=#006EAF;" parent="1" vertex="1">
                    <mxGeometry x="-290" y="255" width="260" height="60" as="geometry"/>
                </mxCell>
                <mxCell id="34" value="real machine1&amp;nbsp;" style="ellipse;whiteSpace=wrap;html=1;fillColor=#f0a30a;fontColor=#000000;strokeColor=#BD7000;" parent="1" vertex="1">
                    <mxGeometry x="950" y="75" width="120" height="80" as="geometry"/>
                </mxCell>
                <mxCell id="35" value="cloud init !=nil" style="shape=parallelogram;perimeter=parallelogramPerimeter;whiteSpace=wrap;html=1;fixedSize=1;fontColor=#000000;fillColor=#f0a30a;strokeColor=#BD7000;" parent="1" vertex="1">
                    <mxGeometry x="770" y="30" width="120" height="60" as="geometry"/>
                </mxCell>
                <mxCell id="36" value="old product" style="shape=singleArrow;direction=west;whiteSpace=wrap;html=1;fontColor=#FF0000;dashed=1;" parent="1" vertex="1">
                    <mxGeometry x="-540" y="160" width="90" height="40" as="geometry"/>
                </mxCell>
                <mxCell id="40" style="edgeStyle=orthogonalEdgeStyle;rounded=1;html=1;fontColor=#FF0000;fillColor=#f0a30a;strokeColor=#BD7000;" parent="1" source="39" target="35" edge="1">
                    <mxGeometry relative="1" as="geometry">
                        <Array as="points">
                            <mxPoint x="-570" y="-260"/>
                            <mxPoint x="830" y="-260"/>
                        </Array>
                    </mxGeometry>
                </mxCell>
                <mxCell id="39" value="cloud&lt;br&gt;init&lt;br&gt;secret" style="rounded=0;whiteSpace=wrap;html=1;fontColor=#ffffff;fillColor=#1ba1e2;strokeColor=#006EAF;gradientColor=#7A28D7;" parent="1" vertex="1">
                    <mxGeometry x="-590" y="85" width="40" height="205" as="geometry"/>
                </mxCell>
                <mxCell id="42" value="new product" style="shape=singleArrow;whiteSpace=wrap;html=1;fontColor=#FF0000;" parent="1" vertex="1">
                    <mxGeometry x="-840" y="160" width="230" height="40" as="geometry"/>
                </mxCell>
                <mxCell id="43" value="plan operator" style="ellipse;whiteSpace=wrap;html=1;dashed=1;fontColor=#ffffff;fillColor=#76608a;strokeColor=#432D57;" parent="1" vertex="1">
                    <mxGeometry x="-1030" y="145" width="152.5" height="80" as="geometry"/>
                </mxCell>
                <mxCell id="44" value="real machine2&amp;nbsp;" style="ellipse;whiteSpace=wrap;html=1;fillColor=#f0a30a;fontColor=#000000;strokeColor=#BD7000;" parent="1" vertex="1">
                    <mxGeometry x="1100" y="75" width="120" height="80" as="geometry"/>
                </mxCell>
                <mxCell id="45" value="......&amp;nbsp;" style="ellipse;whiteSpace=wrap;html=1;fillColor=#f0a30a;fontColor=#000000;strokeColor=#BD7000;" parent="1" vertex="1">
                    <mxGeometry x="1241" y="75" width="120" height="80" as="geometry"/>
                </mxCell>
                <mxCell id="48" style="edgeStyle=orthogonalEdgeStyle;rounded=1;html=1;exitX=0;exitY=0.5;exitDx=0;exitDy=0;entryX=0;entryY=0.5;entryDx=0;entryDy=0;strokeColor=#006EAF;fontColor=#FF0000;fillColor=#1ba1e2;endArrow=none;endFill=0;" parent="1" source="46" target="32" edge="1">
                    <mxGeometry relative="1" as="geometry">
                        <Array as="points">
                            <mxPoint x="-205" y="610"/>
                            <mxPoint x="-450" y="610"/>
                            <mxPoint x="-450" y="120"/>
                        </Array>
                    </mxGeometry>
                </mxCell>
                <mxCell id="61" style="edgeStyle=orthogonalEdgeStyle;rounded=1;html=1;exitX=0.5;exitY=1;exitDx=0;exitDy=0;strokeColor=#006EAF;fontColor=#FF0000;endArrow=classic;endFill=1;fillColor=#1ba1e2;" parent="1" source="46" edge="1">
                    <mxGeometry relative="1" as="geometry">
                        <mxPoint x="-159.5" y="700" as="targetPoint"/>
                    </mxGeometry>
                </mxCell>
                <mxCell id="46" value="AnsibleBootstrapController" style="ellipse;whiteSpace=wrap;html=1;dashed=1;fontColor=#ffffff;fillColor=#1ba1e2;strokeColor=#006EAF;" parent="1" vertex="1">
                    <mxGeometry x="-235" y="560" width="150" height="80" as="geometry"/>
                </mxCell>
                <mxCell id="56" style="edgeStyle=orthogonalEdgeStyle;rounded=1;html=1;entryX=0;entryY=0.5;entryDx=0;entryDy=0;strokeColor=#006EAF;fontColor=#FF0000;endArrow=classic;endFill=1;fillColor=#1ba1e2;" parent="1" source="55" target="46" edge="1">
                    <mxGeometry relative="1" as="geometry"/>
                </mxCell>
                <mxCell id="55" value="&lt;pre&gt;&lt;code class=&quot;language-yaml hljs&quot;&gt;control-plane-controller&lt;/code&gt;&lt;/pre&gt;" style="ellipse;whiteSpace=wrap;html=1;dashed=1;fontColor=#ffffff;fillColor=#a20025;strokeColor=#6F0000;" parent="1" vertex="1">
                    <mxGeometry x="-1030" y="560" width="180" height="80" as="geometry"/>
                </mxCell>
                <mxCell id="59" value="Get control plane&amp;nbsp; information" style="text;html=1;align=center;verticalAlign=middle;resizable=0;points=[];autosize=1;strokeColor=none;fillColor=none;fontColor=#FF0000;strokeWidth=4;" parent="1" vertex="1">
                    <mxGeometry x="-630" y="600" width="180" height="30" as="geometry"/>
                </mxCell>
                <mxCell id="60" value="k8s job(wait real machine ready)" style="ellipse;whiteSpace=wrap;html=1;dashed=1;fontColor=#ffffff;fillColor=#1ba1e2;strokeColor=#006EAF;" parent="1" vertex="1">
                    <mxGeometry x="-257.5" y="670" width="195" height="80" as="geometry"/>
                </mxCell>
                <mxCell id="65" value="init容器(初始化日志目录)&lt;br&gt;日志持久化" style="ellipse;whiteSpace=wrap;html=1;dashed=1;fontColor=#ffffff;fillColor=#1ba1e2;strokeColor=#006EAF;" parent="1" vertex="1">
                    <mxGeometry x="-350" y="770" width="150" height="80" as="geometry"/>
                </mxCell>
                <mxCell id="66" value="业务容器" style="ellipse;whiteSpace=wrap;html=1;dashed=1;fontColor=#ffffff;fillColor=#1ba1e2;strokeColor=#006EAF;" parent="1" vertex="1">
                    <mxGeometry x="-130" y="770" width="150" height="80" as="geometry"/>
                </mxCell>
                <mxCell id="67" value="" style="edgeStyle=orthogonalEdgeStyle;sourcePerimeterSpacing=0;targetPerimeterSpacing=0;startArrow=none;endArrow=none;rounded=0;targetPortConstraint=eastwest;sourcePortConstraint=northsouth;curved=0;rounded=0;strokeColor=#006EAF;fontColor=#FF0000;entryX=1;entryY=0.5;entryDx=0;entryDy=0;fillColor=#1ba1e2;" parent="1" target="65" edge="1">
                    <mxGeometry relative="1" as="geometry">
                        <mxPoint x="-160" y="750" as="sourcePoint"/>
                        <mxPoint x="-170" y="820.0256410256411" as="targetPoint"/>
                    </mxGeometry>
                </mxCell>
                <mxCell id="68" value="" style="edgeStyle=orthogonalEdgeStyle;sourcePerimeterSpacing=0;targetPerimeterSpacing=0;startArrow=none;endArrow=none;rounded=0;targetPortConstraint=eastwest;sourcePortConstraint=northsouth;curved=0;rounded=0;strokeColor=#006EAF;fontColor=#FF0000;entryX=0;entryY=0.5;entryDx=0;entryDy=0;fillColor=#1ba1e2;" parent="1" target="66" edge="1">
                    <mxGeometry relative="1" as="geometry">
                        <mxPoint x="-160" y="750" as="sourcePoint"/>
                        <mxPoint x="-150" y="820.0256410256411" as="targetPoint"/>
                    </mxGeometry>
                </mxCell>
                <mxCell id="92" style="edgeStyle=entityRelationEdgeStyle;rounded=1;html=1;startArrow=none;endArrow=none;segment=10;curved=1;sourcePerimeterSpacing=0;targetPerimeterSpacing=0;exitX=1;exitY=0.5;exitDx=0;exitDy=0;entryX=0;entryY=0.5;entryDx=0;entryDy=0;strokeColor=#006EAF;fontColor=#FF0000;fillColor=#1ba1e2;" parent="1" source="75" target="91" edge="1">
                    <mxGeometry relative="1" as="geometry"/>
                </mxCell>
                <mxCell id="75" value="cm inventory&lt;br&gt;mounts" style="whiteSpace=wrap;html=1;rounded=1;arcSize=50;align=center;verticalAlign=middle;strokeWidth=1;autosize=1;spacing=4;treeFolding=1;treeMoving=1;newEdgeStyle={&quot;edgeStyle&quot;:&quot;entityRelationEdgeStyle&quot;,&quot;startArrow&quot;:&quot;none&quot;,&quot;endArrow&quot;:&quot;none&quot;,&quot;segment&quot;:10,&quot;curved&quot;:1,&quot;sourcePerimeterSpacing&quot;:0,&quot;targetPerimeterSpacing&quot;:0};dashed=1;fontColor=#ffffff;fillColor=#1ba1e2;strokeColor=#006EAF;" parent="1" vertex="1">
                    <mxGeometry x="60" y="700" width="110" height="50" as="geometry"/>
                </mxCell>
                <mxCell id="76" value="" style="edgeStyle=entityRelationEdgeStyle;startArrow=none;endArrow=none;segment=10;curved=1;sourcePerimeterSpacing=0;targetPerimeterSpacing=0;rounded=1;strokeColor=#006EAF;fontColor=#FF0000;fillColor=#1ba1e2;" parent="1" target="75" edge="1">
                    <mxGeometry relative="1" as="geometry">
                        <mxPoint x="20" y="810" as="sourcePoint"/>
                    </mxGeometry>
                </mxCell>
                <mxCell id="93" style="edgeStyle=entityRelationEdgeStyle;rounded=1;html=1;startArrow=none;endArrow=none;segment=10;curved=1;sourcePerimeterSpacing=0;targetPerimeterSpacing=0;exitX=1;exitY=0.5;exitDx=0;exitDy=0;entryX=0;entryY=0.5;entryDx=0;entryDy=0;strokeColor=#006EAF;fontColor=#FF0000;fillColor=#1ba1e2;" parent="1" source="77" target="91" edge="1">
                    <mxGeometry relative="1" as="geometry"/>
                </mxCell>
                <mxCell id="77" value="test vars&lt;br&gt;mounts" style="whiteSpace=wrap;html=1;rounded=1;arcSize=50;align=center;verticalAlign=middle;strokeWidth=1;autosize=1;spacing=4;treeFolding=1;treeMoving=1;newEdgeStyle={&quot;edgeStyle&quot;:&quot;entityRelationEdgeStyle&quot;,&quot;startArrow&quot;:&quot;none&quot;,&quot;endArrow&quot;:&quot;none&quot;,&quot;segment&quot;:10,&quot;curved&quot;:1,&quot;sourcePerimeterSpacing&quot;:0,&quot;targetPerimeterSpacing&quot;:0};dashed=1;fontColor=#ffffff;fillColor=#1ba1e2;strokeColor=#006EAF;" parent="1" vertex="1">
                    <mxGeometry x="65" y="880" width="105" height="50" as="geometry"/>
                </mxCell>
                <mxCell id="78" value="" style="edgeStyle=entityRelationEdgeStyle;startArrow=none;endArrow=none;segment=10;curved=1;sourcePerimeterSpacing=0;targetPerimeterSpacing=0;rounded=1;strokeColor=#006EAF;fontColor=#FF0000;exitX=1;exitY=0.5;exitDx=0;exitDy=0;fillColor=#1ba1e2;" parent="1" source="66" target="77" edge="1">
                    <mxGeometry relative="1" as="geometry">
                        <mxPoint x="40" y="900" as="sourcePoint"/>
                    </mxGeometry>
                </mxCell>
                <mxCell id="94" style="edgeStyle=orthogonalEdgeStyle;rounded=1;html=1;startArrow=none;endArrow=none;segment=10;sourcePerimeterSpacing=0;targetPerimeterSpacing=0;exitX=1;exitY=0.5;exitDx=0;exitDy=0;entryX=0.5;entryY=1;entryDx=0;entryDy=0;strokeColor=#006EAF;fontColor=#FF0000;fillColor=#1ba1e2;" parent="1" source="91" target="34" edge="1">
                    <mxGeometry relative="1" as="geometry"/>
                </mxCell>
                <mxCell id="91" value="job exec" style="whiteSpace=wrap;html=1;rounded=1;arcSize=50;align=center;verticalAlign=middle;strokeWidth=1;autosize=1;spacing=4;treeFolding=1;treeMoving=1;newEdgeStyle={&quot;edgeStyle&quot;:&quot;entityRelationEdgeStyle&quot;,&quot;startArrow&quot;:&quot;none&quot;,&quot;endArrow&quot;:&quot;none&quot;,&quot;segment&quot;:10,&quot;curved&quot;:1,&quot;sourcePerimeterSpacing&quot;:0,&quot;targetPerimeterSpacing&quot;:0};dashed=1;fontColor=#ffffff;fillColor=#1ba1e2;strokeColor=#006EAF;" parent="1" vertex="1">
                    <mxGeometry x="225" y="795" width="90" height="30" as="geometry"/>
                </mxCell>
            </root>
        </mxGraphModel>
    </diagram>
</mxfile>